<?xml version="1.0" standalone="no"?><!DOCTYPE svg PUBLIC "-//W3C//DTD SVG 1.1//EN" "http://www.w3.org/Graphics/SVG/1.1/DTD/svg11.dtd"><svg class="icon" width="16px" height="16.00px" viewBox="0 0 1024 1024" version="1.1" xmlns="http://www.w3.org/2000/svg"><path d="M218.072732 783.178152m22.604217 0l542.501203 0q22.604217 0 22.604217 22.604217l0 22.604217q0 22.604217-22.604217 22.604216l-542.501203 0q-22.604217 0-22.604217-22.604216l0-22.604217q0-22.604217 22.604217-22.604217Z" fill="#3CA3A9" /><path d="M692.761285 240.676949h22.604217a22.604217 22.604217 0 0 1 22.604216 22.604217v91.141361l-67.81265-68.247347v-22.894014a22.604217 22.604217 0 0 1 22.604217-22.604217zM308.4896 557.135984h22.604216v56.510542h-45.208433V579.595302a22.604217 22.604217 0 0 1 22.604217-22.604217zM500.625442 376.736946a56.655441 56.655441 0 0 0-43.469647 43.469648h43.469647v-43.469648z m-43.469647 66.65346a56.510542 56.510542 0 0 0 43.469647 43.469648v-43.469648z m66.653459 43.469648a56.365643 56.365643 0 0 0 43.469648-43.469648h-43.469648v43.469648z m43.469648-66.65346a56.510542 56.510542 0 0 0-43.469648-43.469648v43.469648z m-213.580869 136.92939H376.736946A22.604217 22.604217 0 0 1 398.906467 579.595302v33.906325h-45.208434v-56.510542z m45.208434 79.114759v33.906325A22.604217 22.604217 0 0 1 376.736946 692.761285h-23.038913v-56.510542z m-67.812651 56.510542h-22.604216a22.604217 22.604217 0 0 1-22.604217-22.604217v-33.906325h45.208433v56.510542z m316.459035-135.625301h22.604217v56.510542h-45.208434V579.595302a22.604217 22.604217 0 0 1 22.604217-22.604217z m45.208434 0h22.604217A22.604217 22.604217 0 0 1 737.969718 579.595302v33.906325h-45.208433v-56.510542z m45.208433 79.114759v33.906325a22.749116 22.749116 0 0 1-22.604216 22.604217h-22.604217v-56.510542z m-67.81265 56.510542h-22.604217a22.749116 22.749116 0 0 1-22.604217-22.604217v-33.906325h45.208434v56.510542zM579.595302 602.344418v158.229517h202.858356V559.309467a58.828923 58.828923 0 0 1-6.23065-5.361257L511.927551 286.899675 246.328003 553.94821a64.479977 64.479977 0 0 1-6.08575 5.361257v201.264468h202.858355V602.344418a67.81265 67.81265 0 1 1 135.625301 0z" fill="#D84D32" /><path d="M182.862318 490.337626a33.761426 33.761426 0 0 0 47.961511 47.671713l281.103722-283.277204 281.103721 283.277204A33.761426 33.761426 0 0 0 840.413188 490.337626L536.125654 183.007217a33.761426 33.761426 0 0 0-47.961511 0z" fill="#3CA3A9" /><path d="M466.719117 760.573935h90.416867V602.344418a45.208434 45.208434 0 0 0-90.416867 0z" fill="#3CA3A9" /></svg>