<?xml version="1.0" standalone="no"?><!DOCTYPE svg PUBLIC "-//W3C//DTD SVG 1.1//EN" "http://www.w3.org/Graphics/SVG/1.1/DTD/svg11.dtd"><svg class="icon" width="16px" height="16.00px" viewBox="0 0 1024 1024" version="1.1" xmlns="http://www.w3.org/2000/svg"><path fill="#000000" d="M721.60256 576.77824l-115.3024-115.33312L921.6 375.4496l-102.4-102.4H417.90464L277.22752 132.38272c-39.99744-39.99744-104.8576-39.99744-144.83456 0-39.99744 39.99744-39.99744 104.79616 0 144.76288l140.66688 140.6976v401.3056L375.5008 921.62048l85.97504-315.37152 115.33312 115.33312-41.40032 151.73632 48.30208 48.30208L704.4096 704.41984 921.6 583.61856l-48.19968-48.19968-151.79776 41.35936z m-96.57344 96.57344L426.52672 474.81856l-85.1968 312.46336-0.03072-397.70112-160.62464-160.69632c-13.30176-13.23008-13.27104-34.93888 0.06144-48.30208a34.16064 34.16064 0 0 1 48.24064 0.06144l160.60416 160.6656h397.73184l-312.4736 85.1968L673.3312 625.0496l-48.30208 48.30208z" /></svg>