<?xml version="1.0" standalone="no"?><!DOCTYPE svg PUBLIC "-//W3C//DTD SVG 1.1//EN" "http://www.w3.org/Graphics/SVG/1.1/DTD/svg11.dtd"><svg t="1676192304836" class="icon" viewBox="0 0 1024 1024" version="1.1" xmlns="http://www.w3.org/2000/svg" p-id="3257" xmlns:xlink="http://www.w3.org/1999/xlink" width="16" height="16"><path d="M512 1023.38118C229.611741 1023.38118 0.633554 794.373525 0.633554 512 0.633554 229.626475 229.611741 0.61882 512 0.61882c282.373525 0 511.38118 229.007655 511.38118 511.38118-0.014734 282.373525-229.007655 511.38118-511.38118 511.38118z" fill="#D7D7D8" p-id="3258"></path><path d="M251.550388 233.840345h559.767022c44.171971 0 80.299281 36.142043 80.299281 80.299281V442.014388H171.236374v-127.874762c0-44.171971 36.142043-80.299281 80.314014-80.299281z" fill="#E74A48" p-id="3259"></path><path d="M882.201784 276.524201c6.011396 11.227165 9.42964 24.045583 9.42964 37.615425v49.358273c-0.471482 0.073669-0.942964 0.103137-1.443913 0.103137h-106.392864c-5.436777 0-9.901122-4.449612-9.901122-9.901122V286.425324c0-5.451511 4.449612-9.901122 9.901122-9.901123h98.407137z m-710.96541 86.973698v-49.358273c0-13.569842 3.418245-26.388259 9.42964-37.615425h98.377669c5.451511 0 9.915856 4.464345 9.915857 9.901123v67.289323c0 5.436777-4.464345 9.901122-9.915857 9.901123h-106.378129c-0.486216-0.014734-0.957698-0.044201-1.42918-0.117871z m154.204086-86.973698h106.392864c5.451511 0 9.901122 4.464345 9.901122 9.901123v67.289323c0 5.436777-4.464345 9.901122-9.901122 9.901123h-106.392864c-5.436777 0-9.901122-4.449612-9.901122-9.901123V286.425324c0-5.451511 4.449612-9.901122 9.901122-9.901123z m152.774907 0h106.392863c5.451511 0 9.901122 4.464345 9.901123 9.901123v67.289323c0 5.436777-4.464345 9.901122-9.901123 9.901123h-106.392863c-5.436777 0-9.901122-4.449612-9.901122-9.901123V286.425324c0.014734-5.451511 4.464345-9.901122 9.901122-9.901123z m152.78964 0h106.392864c5.466245 0 9.915856 4.464345 9.915856 9.901123v67.289323c0 5.436777-4.464345 9.901122-9.915856 9.901123h-106.392864c-5.436777 0-9.901122-4.449612-9.901122-9.901123V286.425324c0-5.451511 4.449612-9.901122 9.901122-9.901123z" fill="#FFFFFF" p-id="3260"></path><path d="M183.892719 442.441669h707.738705v243.048978H183.892719V442.441669z" fill="#C32D2C" p-id="3261"></path><path d="M188.651741 576.72564h702.979683v128.626187H132.368576v-64.386762c0-35.331683 20.951482-64.239424 56.283165-64.239425z" fill="#E74A48" p-id="3262"></path><path d="M137.937957 687.479712h748.124086c9.179165 0 16.708144 7.528978 16.708144 16.708144v14.321266c0 9.164432-7.543712 16.708144-16.708144 16.708144H137.937957c-9.164432 0-16.708144-7.514245-16.708144-16.708144v-14.321266c0-9.179165 7.514245-16.708144 16.708144-16.708144z" fill="#A42124" p-id="3263"></path><path d="M183.892719 465.986302h116.30872c5.451511 0 9.901122 4.449612 9.901122 9.901122v79.208979c0 5.451511-4.464345 9.901122-9.901122 9.901122h-116.30872v-99.011223zM339.172374 465.986302h106.392863c5.451511 0 9.901122 4.449612 9.901123 9.901122v79.208979c0 5.451511-4.449612 9.901122-9.901123 9.901122H339.172374c-5.451511 0-9.901122-4.449612-9.901122-9.901122v-79.208979c0-5.436777 4.464345-9.901122 9.901122-9.901122zM484.56564 465.986302h106.392864c5.451511 0 9.901122 4.449612 9.901122 9.901122v79.208979c0 5.451511-4.449612 9.901122-9.901122 9.901122h-106.392864c-5.451511 0-9.901122-4.449612-9.901122-9.901122v-79.208979c0-5.436777 4.449612-9.901122 9.901122-9.901122zM629.944173 465.986302h106.392863c5.466245 0 9.901122 4.449612 9.901122 9.901122v79.208979c0 5.451511-4.434878 9.901122-9.901122 9.901122h-106.392863c-5.451511 0-9.901122-4.449612-9.901123-9.901122v-79.208979c0-5.436777 4.464345-9.901122 9.901123-9.901122z" fill="#FFFFFF" p-id="3264"></path><path d="M795.596432 456.586129h62.559769c4.582216 0 8.324604 3.757122 8.324605 8.309871v186.294331c0 4.552748-3.757122 8.324604-8.324605 8.324604h-62.559769c-4.552748 0-8.309871-3.742388-8.309871-8.324604V464.896c0-4.567482 3.742388-8.309871 8.309871-8.309871z" fill="#F7CF6F" p-id="3265"></path><path d="M171.236374 443.414101h721.102273a5.731453 5.731453 0 0 0 5.71672-5.71672v-7.617381c0-3.138302-2.578417-5.716719-5.71672-5.716719H171.236374c-3.138302 0-5.716719 2.578417-5.716719 5.716719v7.617381c0 3.123568 2.578417 5.716719 5.716719 5.71672z" fill="#A42124" p-id="3266"></path><path d="M737.58941 790.159655c-39.147741 0-70.899108-31.751367-70.899108-70.913842 0-39.147741 31.751367-70.899108 70.899108-70.899108 39.162475 0 70.913842 31.751367 70.913842 70.899108-0.014734 39.162475-31.766101 70.913842-70.913842 70.913842z" fill="#181818" p-id="3267"></path><path d="M737.58941 766.939165c-26.31459 0-47.663885-21.349295-47.663885-47.678618 0-26.31459 21.349295-47.663885 47.663885-47.663885 26.329324 0 47.678619 21.349295 47.678619 47.663885-0.014734 26.329324-21.364029 47.678619-47.678619 47.678618z" fill="#FFFFFF" p-id="3268"></path><path d="M737.58941 759.483856c-22.203856 0-40.223309-18.004719-40.223309-40.223309 0-22.203856 18.019453-40.208576 40.223309-40.208576 22.21859 0 40.223309 18.004719 40.223309 40.208576 0 22.21859-18.019453 40.223309-40.223309 40.223309z" fill="#E74A48" p-id="3269"></path><path d="M737.58941 738.738647c-10.74095 0-19.463367-8.722417-19.463367-19.4781 0-10.74095 8.722417-19.463367 19.463367-19.463367 10.755683 0 19.478101 8.722417 19.478101 19.463367 0 10.755683-8.737151 19.478101-19.478101 19.4781z" fill="#181818" p-id="3270"></path><path d="M259.138302 790.159655c-39.147741 0-70.899108-31.751367-70.899108-70.913842 0-39.147741 31.751367-70.899108 70.899108-70.899108 39.162475 0 70.913842 31.751367 70.913842 70.899108 0 39.162475-31.751367 70.913842-70.913842 70.913842z" fill="#181818" p-id="3271"></path><path d="M259.138302 766.939165c-26.31459 0-47.663885-21.349295-47.663885-47.678618 0-26.31459 21.349295-47.663885 47.663885-47.663885 26.329324 0 47.678619 21.349295 47.678619 47.663885 0 26.329324-21.349295 47.678619-47.678619 47.678618z" fill="#FFFFFF" p-id="3272"></path><path d="M259.138302 759.483856c-22.203856 0-40.208576-18.004719-40.208575-40.223309 0-22.203856 18.004719-40.208576 40.208575-40.208576 22.21859 0 40.223309 18.004719 40.22331 40.208576 0.014734 22.21859-18.004719 40.223309-40.22331 40.223309z" fill="#E74A48" p-id="3273"></path><path d="M259.138302 738.738647c-10.755683 0-19.463367-8.722417-19.463367-19.4781 0-10.74095 8.707683-19.463367 19.463367-19.463367 10.755683 0 19.478101 8.722417 19.478101 19.463367 0.014734 10.755683-8.722417 19.478101-19.478101 19.4781z" fill="#181818" p-id="3274"></path><path d="M193.63177 544.871137a2.006745 2.006745 0 0 1-3.874993 1.060834l-9.12023-32.930072c-2.534216-9.164432-4.965295-14.586475-8.516144-17.489036-3.462446-2.828892-8.295137-3.432978-15.691511-2.961496-1.105036 0.073669-2.062734-0.780892-2.121669-1.885928-0.058935-1.105036 0.780892-2.062734 1.885928-2.121669 8.413007-0.530417 14.056058 0.265209 18.461468 3.860259 4.302273 3.506647 7.101698 9.547511 9.856921 19.537036l9.12023 32.930072z" fill="#FFFFFF" p-id="3275"></path><path d="M156.325755 472.056633c3.978129 0 7.219568 8.280403 7.219569 18.490935 0 10.210532-3.226705 18.490935-7.219569 18.490936-3.978129 0-7.219568-8.280403-7.219568-18.490936 0-10.210532 3.226705-18.490935 7.219568-18.490935z" fill="#FFFFFF" p-id="3276"></path></svg>