<?xml version="1.0" standalone="no"?><!DOCTYPE svg PUBLIC "-//W3C//DTD SVG 1.1//EN" "http://www.w3.org/Graphics/SVG/1.1/DTD/svg11.dtd"><svg t="1676192291801" class="icon" viewBox="0 0 1024 1024" version="1.1" xmlns="http://www.w3.org/2000/svg" p-id="2420" xmlns:xlink="http://www.w3.org/1999/xlink" width="16" height="16"><path d="M510.777 513.223m-418.146 0a418.146 418.146 0 1 0 836.292 0 418.146 418.146 0 1 0-836.292 0Z" fill="#FFD7D7" p-id="2421"></path><path d="M438.911 755.98c-18.666 1.447-313.009-93.297-331.543-116.806S79.069 523.097 88.717 512.795c9.647-10.302 137.955-50.367 165.932-60.777 24.118-41.483 69.514-109.014 69.514-109.014l8.909-8.988 4.595-11.776s-4.667 0.76-26.671 11.426c-22.005 10.667-67.329 105.101-67.329 105.101S105.001 482.333 84.938 483c-20.063 0.667-30.605 15-36.605 41.927-4.805 21.564 15.879 62.227 15.879 62.227S74.37 611.987 81 647c4.355 23 45.771 22.762 49.249 36.666 3.479 13.905 19.151 35.853 41.417 56 29.841 27 95-3.824 95-3.824s140.334 58.824 175.626 56c14.083-1.127 77.989-35.846 77.989-35.846 6.751-6.432 18.085 39.201 68.719 35.945 27.577-1.773 61.666-31.61 63.146-84.274 83.245-49.903 95.104-45.7 100.322-58.836-126.787 46.525-301.572 106.22-313.557 107.149z" fill="#280D0D" p-id="2422"></path><path d="M209.624002 723.302558a51.711 70.624 0.894 1 0 2.203838-141.230806 51.711 70.624 0.894 1 0-2.203838 141.230806Z" fill="#4C3022" p-id="2423"></path><path d="M210.199 727.298c-0.222 0-0.442-0.002-0.666-0.005-15.119-0.236-29.125-8.383-39.438-22.94-10.045-14.178-15.407-32.838-15.099-52.542 0.305-19.554 6.172-37.936 16.519-51.761 10.769-14.389 25.083-22.227 40.349-21.982 15.119 0.236 29.125 8.383 39.438 22.94 10.045 14.178 15.407 32.838 15.1 52.542-0.305 19.554-6.172 37.936-16.519 51.761-10.612 14.178-24.706 21.987-39.684 21.987z m0.999-141.237c-26.012 0-47.636 29.551-48.203 65.874-0.282 18.018 4.558 34.991 13.628 47.793 8.801 12.422 20.533 19.371 33.036 19.566l0.541 0.004c26.013 0 47.637-29.551 48.204-65.874 0.281-18.018-4.559-34.991-13.628-47.793-8.801-12.422-20.533-19.371-33.036-19.566l-0.542-0.004z" fill="#280D0D" p-id="2424"></path><path d="M218.684018 723.442559a42.65 70.624 0.894 1 0 2.203837-141.230807 42.65 70.624 0.894 1 0-2.203837 141.230807Z" fill="#4C3022" p-id="2425"></path><path d="M219.067 727.438l-0.473-0.004c-12.846-0.201-24.645-8.418-33.224-23.138-8.208-14.083-12.56-32.623-12.254-52.203 0.647-41.433 21.439-73.889 47.335-73.889l0.473 0.004c12.846 0.201 24.645 8.418 33.224 23.139 8.208 14.083 12.56 32.623 12.254 52.203-0.647 41.432-21.439 73.888-47.335 73.888z m1.384-141.234c-21.122 0-38.768 29.614-39.336 66.014-0.283 18.143 3.683 35.208 11.167 48.05 7.113 12.205 16.502 19.012 26.437 19.167l0.348 0.003c21.122 0 38.768-29.614 39.336-66.014 0.283-18.143-3.683-35.208-11.167-48.05-7.113-12.205-16.502-19.012-26.437-19.167l-0.348-0.003z" fill="#280D0D" p-id="2426"></path><path d="M88.717 512.795c9.647-10.302 137.955-50.367 165.932-60.777 24.118-41.483 69.514-109.014 69.514-109.014l18.276-18.439s203.556-48.127 238.286-48.127c34.73 0 146.638 42.785 163.038 54.676 7.718 8.031 69.46 90.607 69.46 90.607s67.58 18.316 68.949 33.961c3.849 43.971 10.009 129.178 1.063 140.084-12.129 14.787-425.659 158.767-444.324 160.214-18.666 1.447-313.009-93.297-331.543-116.806S79.069 523.097 88.717 512.795z" fill="#FFD96E" p-id="2427"></path><path d="M438.439 760.997c-13.146 0-97.819-25.916-168.729-49.927-57.075-19.326-154.571-53.963-166.269-68.801-13.066-16.573-19.32-58.224-20.925-70.594-1.593-12.274-6.117-53.042 2.552-62.298 6.601-7.05 47.498-21.586 125.664-47.673 17.229-5.75 32.266-10.769 40.505-13.76 24.142-41.27 68.328-107.062 68.777-107.73 0.176-0.262 0.376-0.506 0.598-0.73l18.276-18.439a4.993 4.993 0 0 1 2.401-1.346c8.334-1.971 204.525-48.261 239.437-48.261 35.026 0 148.074 42.651 165.973 55.627 0.241 0.174 0.465 0.37 0.67 0.584 7.379 7.678 60.481 78.546 68.837 89.71 4.718 1.33 18.581 5.373 32.767 10.805 32.841 12.575 37.656 21.078 38.181 27.081 11.36 129.778 2.771 140.25-0.052 143.691-1.649 2.011-5.081 6.194-73.997 32.567-48.144 18.424-107.006 39.58-147.909 54.084-100.437 35.615-215.363 74.56-225.898 75.376-0.258 0.022-0.544 0.034-0.859 0.034z m-110.39-414.811c-3.753 5.597-46.266 69.108-69.077 108.345a5.003 5.003 0 0 1-2.579 2.173c-7.919 2.947-23.942 8.294-42.496 14.486-23.63 7.886-53.038 17.701-76.941 26.308-36.632 13.191-43.389 17.484-44.593 18.718-2.534 3.125-3.912 23.922 0.149 54.779 4.02 30.548 11.217 55.486 18.782 65.082 5.355 6.792 50.897 28.028 161.624 65.521 85.973 29.111 156.235 49.398 165.522 49.398l0.089-0.002c7.499-0.622 100.19-31.198 221.201-74.079 153.194-54.286 214.03-79.365 219.708-84.409 0.913-1.265 4.512-9.182 3.068-54.224-0.898-27.999-3.385-60.136-5.313-82.166-0.024-0.272-0.938-6.799-31.795-18.614-16.638-6.37-33.315-10.912-33.481-10.957a4.997 4.997 0 0 1-2.696-1.832c-16.865-22.555-61.538-81.914-68.757-89.812-16.115-11.1-125.464-53.463-159.739-53.463-32.272 0-217.732 43.429-235.744 47.665l-16.932 17.083z" fill="#280D0D" p-id="2428"></path><path d="M345.367 368.042c16.007-13.435 184.147 33.727 184.147 33.727s-10.368 100.211-26.285 100.723-135.708-55.299-195.851-61.399c-18.723-1.899 21.982-59.616 37.989-73.051z" fill="#FFF6EE" p-id="2429"></path><path d="M503.005 507.496c-7 0-24.287-6.423-56.787-18.731-43.472-16.463-103.008-39.011-139.344-42.697-4.355-0.442-7.55-2.961-8.767-6.913-2.27-7.373 2.822-20.657 15.133-39.483 9.552-14.607 21.441-29.188 28.913-35.459 2.948-2.475 7.783-3.579 15.675-3.579 43.045 0 167.75 34.838 173.037 36.321a5.002 5.002 0 0 1 3.624 5.329c-0.026 0.252-2.665 25.535-7.228 50.552-2.704 14.823-5.555 26.702-8.473 35.308-3.009 8.874-7.479 19.091-15.396 19.346a12.2 12.2 0 0 1-0.387 0.006zM307.617 436.08c0.068 0.014 0.156 0.027 0.266 0.039 37.642 3.818 97.887 26.634 141.876 43.294 24.354 9.224 47.369 17.94 53.107 18.082 0.917-0.574 7.399-6.048 15.007-48.964 3.154-17.795 5.307-35.294 6.202-43.078-22.241-6.106-128.814-34.819-166.248-34.819-7.518 0-9.188 1.195-9.256 1.246-6.794 5.703-18.648 20.403-27.562 34.187-12.529 19.374-13.915 28.082-13.392 30.013z" fill="#280D0D" p-id="2430"></path><path d="M475.085 274.014l113.84 32.33-0.576 48.746-20.509 8.322v-49.029l-121.072-33.315z" fill="#45F2FF" p-id="2431"></path><path d="M567.84 368.412a4.998 4.998 0 0 1-5-5v-45.218L445.442 285.89a5 5 0 0 1 0.118-9.673l28.316-7.054a5.007 5.007 0 0 1 2.575 0.042l113.839 32.33a4.999 4.999 0 0 1 3.634 4.869l-0.576 48.746a4.997 4.997 0 0 1-3.12 4.574l-20.509 8.322a5.003 5.003 0 0 1-1.879 0.366z m-101.352-87.103l102.679 28.254a5 5 0 0 1 3.673 4.821v41.604l10.548-4.28 0.492-41.597L475 279.188l-8.512 2.121z" fill="#280D0D" p-id="2432"></path><path d="M567.84 363.412l-126.305-39.316 5.233-43.028 121.072 33.315z" fill="#3BFFDE" p-id="2433"></path><path d="M567.839 368.412c-0.498 0-0.999-0.074-1.485-0.226L440.05 328.87a5 5 0 0 1-3.478-5.377l5.233-43.027a4.995 4.995 0 0 1 2.179-3.549 4.996 4.996 0 0 1 4.111-0.668l121.072 33.315a5 5 0 0 1 3.673 4.821v49.028a5.001 5.001 0 0 1-5.001 4.999z m-120.837-47.851l115.837 36.058v-38.425l-111.808-30.766-4.029 33.133z" fill="#280D0D" p-id="2434"></path><path d="M561.64 398.626l-11.974 103.866s94.005-36.633 114.144-37.766l-30.877-89.685-71.293 23.585z" fill="#FFF6EE" p-id="2435"></path><path d="M549.667 507.493a5.002 5.002 0 0 1-4.968-5.573l11.974-103.866a4.998 4.998 0 0 1 3.397-4.174l71.293-23.584a5 5 0 0 1 6.298 3.12l30.877 89.685a5.002 5.002 0 0 1-4.447 6.62c-15.87 0.893-86.668 27.323-112.609 37.432a5.034 5.034 0 0 1-1.815 0.34z m16.575-105.122l-10.662 92.484c20.893-7.995 77.851-29.383 101.546-34.184l-27.312-79.33-63.572 21.03z" fill="#280D0D" p-id="2436"></path><path d="M646.336 368.042l78.229-23.294s66.188 74.612 54.313 80.957c-29.825 15.937-96.858 30.171-96.858 30.171l-35.684-87.834z" fill="#FFF6EE" p-id="2437"></path><path d="M682.018 460.877a5.001 5.001 0 0 1-4.63-3.119l-35.685-87.834a4.999 4.999 0 0 1 3.206-6.673l78.229-23.293a5.002 5.002 0 0 1 5.167 1.474c0.146 0.165 14.782 16.686 28.927 34.649 26.283 33.376 28.863 43.257 27.92 48.521-0.437 2.439-1.829 4.398-3.918 5.515-30.104 16.086-95.41 30.064-98.175 30.652a5.14 5.14 0 0 1-1.041 0.108z m-28.977-89.615l32.023 78.822c14.658-3.299 65.036-15.19 90.183-28.12-1.258-7.476-20.761-35.677-52.314-71.512l-69.892 20.81z" fill="#280D0D" p-id="2438"></path><path d="M529.514 699.828a51.71 70.622 0 1 0 103.42 0 51.71 70.622 0 1 0-103.42 0Z" fill="#4C3022" p-id="2439"></path><path d="M581.224 774.45c-30.719 0-55.71-33.476-55.71-74.623s24.991-74.622 55.71-74.622c30.718 0 55.709 33.475 55.709 74.622s-24.991 74.623-55.709 74.623z m0-141.244c-26.307 0-47.71 29.887-47.71 66.622 0 36.736 21.403 66.623 47.71 66.623s47.709-29.887 47.709-66.623c0.001-36.736-21.402-66.622-47.709-66.622z" fill="#280D0D" p-id="2440"></path><path d="M556.545 699.828a38.194 70.622 0 1 0 76.388 0 38.194 70.622 0 1 0-76.388 0Z" fill="#4C3022" p-id="2441"></path><path d="M594.739 774.45c-23.66 0-42.194-32.778-42.194-74.623s18.534-74.622 42.194-74.622 42.194 32.778 42.194 74.622-18.534 74.623-42.194 74.623z m0-141.244c-18.535 0-34.194 30.509-34.194 66.622s15.659 66.623 34.194 66.623 34.194-30.509 34.194-66.623c0.001-36.113-15.659-66.622-34.194-66.622z" fill="#280D0D" p-id="2442"></path><path d="M746.462 612.885a46.645 63.705 0 1 0 93.29 0 46.645 63.705 0 1 0-93.29 0Z" fill="#4C3022" p-id="2443"></path><path d="M793.107 680.59c-27.926 0-50.646-30.373-50.646-67.705 0-37.333 22.719-67.706 50.646-67.706 27.926 0 50.645 30.373 50.645 67.706 0 37.332-22.719 67.705-50.645 67.705z m0-127.411c-23.515 0-42.646 26.784-42.646 59.706 0 32.921 19.131 59.705 42.646 59.705s42.645-26.784 42.645-59.705c0-32.922-19.13-59.706-42.645-59.706z" fill="#280D0D" p-id="2444"></path><path d="M766.08 612.885a36.836 63.705 0 1 0 73.672 0 36.836 63.705 0 1 0-73.672 0Z" fill="#4C3022" p-id="2445"></path><path d="M802.917 680.59c-22.898 0-40.836-29.74-40.836-67.705 0-37.966 17.938-67.706 40.836-67.706s40.836 29.74 40.836 67.706c-0.001 37.965-17.938 67.705-40.836 67.705z m0-127.411c-17.799 0-32.836 27.342-32.836 59.706 0 32.363 15.037 59.705 32.836 59.705s32.836-27.342 32.836-59.705c-0.001-32.364-15.038-59.706-32.836-59.706z" fill="#280D0D" p-id="2446"></path><path d="M90.245 531.125C128 555 386 647.372 435.932 628.24c6.256 30.227 14.372 103.036 3.264 121.685-6.198 3.01-81.95-22.24-159.464-45.178-78.883-23.343-153.712-47.317-166.741-60.978-7.075-6.753-17.663-26.109-21.997-51.102-5.657-32.625-8.854-50.371-0.749-61.542z" fill="#FFC866" p-id="2447"></path><path d="M437.558 755.17c-9.208 0-40.001-9.305-93.635-25.752-20.173-6.186-43.038-13.197-65.61-19.877-106.673-31.567-157.21-50.191-168.854-62.233-11.081-10.654-20.15-35.098-23.391-53.787l-0.198-1.138c-5.753-33.171-8.923-51.444 0.328-64.195a5 5 0 0 1 6.72-1.29c15.354 9.71 74.256 33.854 146.248 57.45 80.429 26.362 145.253 41.481 177.851 41.481 7.454 0 13.217-0.76 17.127-2.258a5.002 5.002 0 0 1 6.686 3.656c5.107 24.676 15.675 103.411 2.663 125.257a5.003 5.003 0 0 1-2.111 1.939c-1.052 0.51-2.267 0.747-3.824 0.747zM92.153 538.022c-3.848 9.892-1.042 26.065 3.569 52.652l0.197 1.138c4.353 25.099 14.898 42.97 20.523 48.34 0.057 0.054 0.112 0.109 0.166 0.166 14.54 15.246 123.516 47.494 164.541 59.634 22.619 6.693 45.508 13.712 65.704 19.905 40.238 12.339 78.36 24.029 89.172 25.214 7.716-18.862 1.956-78.619-3.958-110.541-4.187 0.871-9.165 1.298-15.052 1.298-19.752 0-69.529-5.454-180.965-41.979-61.546-20.171-121.013-43.312-143.897-55.827z" fill="#280D0D" p-id="2448"></path><path d="M67.499 538.199a22.746 34.594 0 1 0 45.492 0 22.746 34.594 0 1 0-45.492 0Z" fill="#FFF6EE" p-id="2449"></path><path d="M90.245 577.793c-15.559 0-27.746-17.392-27.746-39.594s12.188-39.594 27.746-39.594c15.559 0 27.747 17.392 27.747 39.594s-12.188 39.594-27.747 39.594z m0-69.188c-9.619 0-17.746 13.553-17.746 29.594s8.127 29.594 17.746 29.594c9.62 0 17.747-13.553 17.747-29.594s-8.128-29.594-17.747-29.594z" fill="#280D0D" p-id="2450"></path><path d="M422.121 612.885s192.652-116.433 460.051-157.203c0 0-419.43 135.588-460.051 157.203z" fill="#FFC866" p-id="2451"></path><path d="M422.125 617.886a5.001 5.001 0 0 1-2.591-9.281c0.485-0.293 49.415-29.691 130.404-63.645 74.7-31.317 192.846-73.084 331.48-94.222a5 5 0 0 1 1.507 9.885c-137.625 20.983-254.94 62.459-329.121 93.559-80.32 33.673-128.619 62.692-129.098 62.981-0.808 0.49-1.7 0.723-2.581 0.723z" fill="#280D0D" p-id="2452"></path><path d="M383.523 626.885a28.483 34.487 0 1 0 56.966 0 28.483 34.487 0 1 0-56.966 0Z" fill="#FFF6EE" p-id="2453"></path><path d="M412.006 666.372c-18.463 0-33.483-17.714-33.483-39.487s15.021-39.487 33.483-39.487 33.483 17.714 33.483 39.487-15.02 39.487-33.483 39.487z m0-68.975c-12.949 0-23.483 13.228-23.483 29.487s10.535 29.487 23.483 29.487 23.483-13.228 23.483-29.487-10.534-29.487-23.483-29.487z" fill="#280D0D" p-id="2454"></path><path d="M522.805 591.471c13.988-8.746 29.427-15.337 44.695-21.472 15.937-6.403 32.373-12.501 49.228-15.999 6.312-1.31 3.634-10.949-2.658-9.643-16.87 3.501-33.262 9.638-49.228 15.999-16.07 6.403-32.378 13.284-47.084 22.48-5.453 3.41-0.438 12.065 5.047 8.635zM505 598.667c6.449 0 6.449-10 0-10s-6.449 10 0 10z" fill="#FFFFFF" p-id="2455"></path><path d="M549.666 636.548s-46.261 45.716-40.241 91.38l19.85-3.782c0.001 0-11.632-50.347 20.391-87.598zM762.575 558.619c-24.359 11.195-40.75 48.879-34.73 94.543l20.742-7.959c-0.001 0-17.848-52.336 13.988-86.584z" fill="#FFC866" p-id="2456"></path><path d="M488.183 306.193c0.146 0.079 0.21 0.18 0.193 0.302a0.57 0.57 0 0 1-0.178 0.329 2.568 2.568 0 0 1-0.336 0.271c-0.123 0.082-0.206 0.138-0.25 0.164a3.754 3.754 0 0 1-1.565 0.426 0.84 0.84 0 0 1-0.445-0.108 58.63 58.63 0 0 1-2.895-1.472 155.682 155.682 0 0 0-2.892-1.529c-0.625-0.328-1.251-0.647-1.878-0.957s-1.265-0.612-1.913-0.908c0.01 0.216 0.009 0.43-0.002 0.641s-0.012 0.424-0.001 0.641a68.163 68.163 0 0 1-0.254 3.878 65.6 65.6 0 0 0-0.254 3.879 57.32 57.32 0 0 0-0.007 4.063c0.045 1.363 0.235 2.742 0.568 4.135 0.072 0.253 0.139 0.504 0.201 0.755 0.062 0.25 0.14 0.495 0.235 0.735 0.055 0.17 0.038 0.292-0.052 0.365l-0.069 0.097-0.07 0.097a2.84 2.84 0 0 1-0.931 0.588c-0.176 0.067-0.36 0.123-0.555 0.167a3.147 3.147 0 0 1-0.583 0.071c-0.085-0.005-0.208-0.014-0.368-0.029s-0.269-0.08-0.327-0.193a8.29 8.29 0 0 1-0.528-1.56 20.703 20.703 0 0 1-0.301-1.584 24.56 24.56 0 0 1-0.311-3.234 42.16 42.16 0 0 1 0.045-4.169c0.083-1.366 0.183-2.732 0.298-4.1 0.033-0.612 0.07-1.214 0.112-1.805s0.068-1.195 0.081-1.813c0.024-0.46 0.033-0.928 0.026-1.406a9.6 9.6 0 0 0-0.131-1.45 0.317 0.317 0 0 1 0.041-0.164c-0.503-0.216-1.013-0.416-1.528-0.597l-1.562-0.549a44.222 44.222 0 0 0-3.426-0.86 2.046 2.046 0 0 1-0.722 0.266c-0.132 0.061-0.29 0.105-0.474 0.131a1.262 1.262 0 0 1-0.528-0.03l-1.141-0.315c-0.38-0.105-0.76-0.201-1.142-0.287a1.234 1.234 0 0 1-0.299-0.127 0.255 0.255 0 0 1-0.131-0.254 0.595 0.595 0 0 1 0.213-0.379c0.271-0.255 0.581-0.441 0.929-0.558 0.263-0.103 0.524-0.175 0.784-0.221 1.443-0.145 2.972-0.081 4.586 0.191a27.89 27.89 0 0 1 5.197 1.395 65.842 65.842 0 0 1 5.125 2.162c0.836 0.387 1.667 0.792 2.491 1.213 0.824 0.423 1.643 0.853 2.456 1.292 0.75 0.402 1.5 0.799 2.25 1.191 0.751 0.395 1.49 0.798 2.218 1.213zM504.133 323.635c0.111 0.711 0.198 1.415 0.257 2.111 0.059 0.697 0.103 1.389 0.131 2.077 0.03 0.649 0.049 1.3 0.057 1.953s-0.025 1.28-0.1 1.881a0.773 0.773 0 0 1-0.181 0.373 1.307 1.307 0 0 1-0.303 0.251 7.968 7.968 0 0 1-0.53 0.291 2.178 2.178 0 0 1-0.588 0.187 4.895 4.895 0 0 1-0.326 0.085 2.279 2.279 0 0 1-0.485 0.055 1.107 1.107 0 0 1-0.446-0.08c-0.126-0.055-0.195-0.162-0.208-0.32-0.009-0.644-0.007-1.28 0.005-1.908s0.003-1.266-0.027-1.916a47.96 47.96 0 0 0-0.346-4.074 37.76 37.76 0 0 0-0.762-4.102 0.191 0.191 0 0 0-0.094-0.055c-0.418-0.194-0.848-0.385-1.288-0.575s-0.871-0.362-1.291-0.518c-0.691-0.288-1.39-0.56-2.095-0.813a90.457 90.457 0 0 0-2.13-0.736 65.53 65.53 0 0 0-0.785 2.071 89.962 89.962 0 0 1-0.786 2.099c-0.124 0.296-0.235 0.59-0.336 0.883s-0.213 0.588-0.336 0.884a1.717 1.717 0 0 0-0.114 0.333 1.634 1.634 0 0 1-0.114 0.333 0.374 0.374 0 0 0-0.055 0.13 0.391 0.391 0 0 1-0.055 0.131c-0.002 0.039-0.008 0.061-0.02 0.067-0.012 0.007-0.017 0.029-0.02 0.067-0.022 0.014-0.034 0.03-0.035 0.049-0.001 0.02-0.013 0.036-0.035 0.049-0.002 0.039-0.014 0.064-0.036 0.078a0.359 0.359 0 0 1-0.08 0.284 2.028 2.028 0 0 1-0.523 0.467l-0.183 0.11a3.082 3.082 0 0 1-1.502 0.429 1.275 1.275 0 0 1-0.352-0.024 0.65 0.65 0 0 1-0.343-0.198c-0.02-0.025-0.029-0.065-0.026-0.123-0.02-0.025-0.03-0.048-0.029-0.067a0.46 0.46 0 0 1 0.041-0.164 0.436 0.436 0 0 0 0.041-0.164c0.002-0.038 0.008-0.061 0.02-0.067 0.011-0.006 0.017-0.029 0.019-0.067a0.102 0.102 0 0 1-0.018 0.053 0.1 0.1 0 0 0-0.019 0.053c0.077-0.231 0.152-0.453 0.228-0.665s0.162-0.431 0.26-0.657l0.749-2.008 0.75-2.007c0.197-0.489 0.389-0.98 0.576-1.473 0.187-0.492 0.379-0.992 0.578-1.5a33.22 33.22 0 0 1-0.311-0.203 1.78 1.78 0 0 1-0.308-0.259c-0.081-0.101-0.08-0.212 0.002-0.335 0.081-0.124 0.144-0.198 0.188-0.225a2.55 2.55 0 0 1 0.567-0.396c0.066-0.04 0.138-0.079 0.215-0.116s0.159-0.072 0.247-0.106c0.025-0.071 0.05-0.136 0.075-0.198 0.024-0.061 0.05-0.137 0.076-0.227 0.276-0.759 0.552-1.513 0.828-2.263 0.275-0.75 0.541-1.507 0.795-2.271 0.1-0.264 0.188-0.526 0.267-0.786s0.156-0.524 0.236-0.794a0.892 0.892 0 0 0 0.095-0.294 1.18 1.18 0 0 1 0.097-0.323c0.002-0.038 0.01-0.08 0.023-0.125s0.021-0.086 0.023-0.125c0.003-0.057 0.016-0.092 0.038-0.106 0.002-0.038 0.009-0.07 0.021-0.096s0.019-0.058 0.021-0.096c0.002-0.038 0.009-0.061 0.02-0.067 0.011-0.006 0.006-0.032-0.013-0.076a0.424 0.424 0 0 1 0.012-0.23 0.142 0.142 0 0 0-0.026-0.095l0.001-0.029a0.39 0.39 0 0 1 0.076-0.212c0.045-0.064 0.092-0.12 0.137-0.166a2.52 2.52 0 0 1 0.93-0.559c0.175-0.068 0.354-0.125 0.54-0.171 0.184-0.046 0.383-0.069 0.598-0.068 0.193-0.004 0.363 0.023 0.51 0.083 0.104 0.048 0.192 0.111 0.263 0.189s0.137 0.154 0.198 0.229l0.271 0.337a21.97 21.97 0 0 1 2.581 3.774 32.11 32.11 0 0 1 1.827 4.032c0.262 0.713 0.502 1.436 0.721 2.167 0.218 0.73 0.426 1.463 0.623 2.198 0.356 0.157 0.706 0.322 1.051 0.495s0.682 0.363 1.014 0.572c0.145 0.099 0.209 0.208 0.191 0.33s-0.077 0.231-0.178 0.329c-0.102 0.099-0.214 0.188-0.336 0.271s-0.216 0.135-0.281 0.155c-0.244 0.146-0.561 0.263-0.951 0.349 0.068 0.33 0.125 0.657 0.173 0.98l0.143 0.974z m-9.047-7.604l2.196 0.724c0.727 0.24 1.457 0.51 2.191 0.811-0.128-0.404-0.268-0.807-0.418-1.208s-0.3-0.807-0.45-1.218a27.826 27.826 0 0 0-0.888-2.023 30.325 30.325 0 0 0-1.083-2.02 4.062 4.062 0 0 1-0.251-0.404 4.905 4.905 0 0 0-0.252-0.405c-0.002 0.039-0.014 0.064-0.036 0.077l0.036-0.077c-0.125 0.334-0.239 0.662-0.341 0.984a23.16 23.16 0 0 1-0.341 0.983 52.924 52.924 0 0 1-0.64 1.746c-0.224 0.58-0.437 1.162-0.639 1.747 0.147 0.041 0.295 0.087 0.442 0.137 0.147 0.051 0.305 0.099 0.474 0.146zM529.216 339.787a0.282 0.282 0 0 1-0.017 0.316l-0.174 0.243a2.326 2.326 0 0 1-0.896 0.539c-0.175 0.068-0.355 0.125-0.54 0.171s-0.384 0.069-0.598 0.068a1.717 1.717 0 0 1-0.354-0.011 0.43 0.43 0 0 1-0.311-0.202 46.232 46.232 0 0 1-1.556-2.18 59.095 59.095 0 0 1-1.424-2.229 107.174 107.174 0 0 1-2.954-5.204 307.32 307.32 0 0 1-3.424-6.645 99.488 99.488 0 0 0-0.698-1.388l-0.604 0.794c-0.196 0.256-0.397 0.521-0.604 0.794-0.466 0.687-0.925 1.367-1.378 2.038s-0.882 1.368-1.284 2.092a29.9 29.9 0 0 0-1.114 2.212c-0.341 0.751-0.681 1.516-1.022 2.296a0.72 0.72 0 0 1-0.292 0.357 3.269 3.269 0 0 1-0.415 0.235c-0.332 0.2-0.713 0.327-1.145 0.383-0.13 0.022-0.275 0.04-0.437 0.054a0.805 0.805 0 0 1-0.461-0.099c-0.123-0.093-0.182-0.196-0.176-0.311a19.833 19.833 0 0 1 1.152-2.931 36.1 36.1 0 0 1 1.496-2.748 42.784 42.784 0 0 1 2.494-3.681 94.035 94.035 0 0 1 2.773-3.487l-0.262-0.51a58.457 58.457 0 0 1-0.944-1.893l-0.911-1.914a55.091 55.091 0 0 0-1.032-2.063 37.963 37.963 0 0 0-1.161-2.041 27.669 27.669 0 0 0-1.74-2.346c-0.022 0.013-0.054 0.014-0.097 0.002-0.065 0.021-0.183 0.017-0.353-0.011-0.17-0.028-0.273-0.095-0.311-0.203a4.767 4.767 0 0 1-0.183-0.488 1.577 1.577 0 0 0-0.218-0.439 1.015 1.015 0 0 1-0.184-0.168 0.354 0.354 0 0 0 0.062 0.061 0.39 0.39 0 0 1 0.061 0.061 5.886 5.886 0 0 0-0.339-0.269l-0.062-0.046c-0.126-0.054-0.185-0.148-0.178-0.283 0.023-0.032 0.036-0.062 0.037-0.091s0.014-0.059 0.037-0.092c0.071-0.136 0.174-0.253 0.308-0.353a2.39 2.39 0 0 1 0.399-0.239 2.92 2.92 0 0 1 1.146-0.382c0.107-0.009 0.248-0.02 0.419-0.03a0.766 0.766 0 0 1 0.445 0.094c0.124 0.074 0.228 0.141 0.31 0.202a12.835 12.835 0 0 1 1.7 1.593c0.516 0.58 0.982 1.18 1.399 1.801a27.494 27.494 0 0 1 2.057 3.644 150.048 150.048 0 0 0 1.795 3.717 76.8 76.8 0 0 1 0.887-0.964c0.295-0.316 0.581-0.65 0.857-1.001 0.229-0.287 0.444-0.591 0.643-0.915a5.39 5.39 0 0 0 0.488-1.016 2.01 2.01 0 0 0 0.086-0.414c-0.108 0.009-0.226 0.015-0.354 0.018s-0.255-0.032-0.38-0.105c-0.104-0.067-0.159-0.141-0.165-0.22a0.413 0.413 0 0 1 0.061-0.245 0.81 0.81 0 0 1 0.307-0.324l0.398-0.239c0.312-0.224 0.707-0.397 1.185-0.518a5.54 5.54 0 0 1 0.471-0.088c0.162-0.023 0.328-0.03 0.5-0.022 0.107-0.009 0.214-0.003 0.321 0.016 0.105 0.02 0.212 0.025 0.32 0.016 0.106 0.01 0.206 0.052 0.298 0.126 0.093 0.074 0.136 0.159 0.131 0.255-0.041 0.766-0.238 1.45-0.591 2.052a14.16 14.16 0 0 1-1.184 1.712 22.57 22.57 0 0 1-1.299 1.461c-0.454 0.467-0.887 0.954-1.299 1.462-0.114 0.124-0.212 0.262-0.295 0.414s-0.182 0.29-0.295 0.414a0.185 0.185 0 0 0-0.05 0.044 0.167 0.167 0 0 1-0.05 0.044l2.269 4.475c0.757 1.492 1.535 2.99 2.333 4.493a121.462 121.462 0 0 0 2.938 5.199 104.223 104.223 0 0 0 3.232 5.08z" fill="" p-id="2457"></path><path d="M540.656 338.64c0.125 0.073 0.185 0.158 0.18 0.254s-0.031 0.176-0.077 0.241a1.022 1.022 0 0 1-0.309 0.352 2.214 2.214 0 0 1-0.397 0.239 2.943 2.943 0 0 1-1.146 0.383c-0.325 0.065-0.625 0.05-0.897-0.045-0.42-0.175-0.819-0.314-1.199-0.42a32.258 32.258 0 0 0-1.837-0.508c-0.307 0.11-0.642 0.172-1.007 0.188 0.3-0.014 0.407-0.014 0.321 0.001a1.928 1.928 0 0 1-0.386 0.01 2.528 2.528 0 0 1-0.432-0.032 0.791 0.791 0 0 1-0.394-0.167 2.03 2.03 0 0 1-0.364-0.393 34.021 34.021 0 0 0-0.91-0.121 33.486 33.486 0 0 1-0.91-0.121 38.999 38.999 0 0 1-1.022-0.122c-0.34-0.047-0.691-0.1-1.052-0.161a0.64 0.64 0 0 1-0.3-0.112c-0.092-0.064-0.137-0.144-0.132-0.24a0.925 0.925 0 0 1 0.246-0.399c0.116-0.142 0.245-0.277 0.392-0.401a6.98 6.98 0 0 1 0.452-0.355c0.177-0.106 0.354-0.217 0.532-0.333s0.355-0.228 0.532-0.333c0.177-0.106 0.363-0.186 0.56-0.239 0.195-0.052 0.391-0.1 0.586-0.143a1.794 1.794 0 0 1 0.547-0.024c0.01-0.988 0.062-1.965 0.156-2.93 0.072-0.952 0.159-1.884 0.261-2.798s0.21-1.841 0.324-2.78c0.112-0.883 0.222-1.751 0.332-2.604 0.109-0.854 0.23-1.718 0.363-2.596 0.039-0.338 0.078-0.672 0.118-1.002 0.038-0.329 0.088-0.66 0.149-0.993 0.007-0.133 0.019-0.262 0.036-0.384 0.017-0.121 0.029-0.249 0.037-0.382 0.026-0.09 0.036-0.18 0.03-0.269s0.004-0.178 0.03-0.269a4.767 4.767 0 0 0-0.726-0.259 10.49 10.49 0 0 0-2.16-0.481 0.554 0.554 0 0 1-0.284-0.107c-0.083-0.062-0.121-0.15-0.115-0.265a0.456 0.456 0 0 1 0.163-0.333c0.101-0.089 0.196-0.169 0.286-0.241 0.29-0.211 0.615-0.374 0.974-0.489 0.36-0.114 0.752-0.151 1.179-0.111 0.49 0.039 0.975 0.115 1.451 0.227 0.476 0.113 0.956 0.255 1.44 0.427l0.384 0.019c0.232 0.064 0.367 0.16 0.403 0.287 0.104 0.048 0.209 0.087 0.315 0.116s0.211 0.068 0.316 0.117a35.265 35.265 0 0 1 4.227 2.131c0.145 0.08 0.209 0.18 0.192 0.301s-0.077 0.231-0.178 0.33a1.972 1.972 0 0 1-0.352 0.267l-0.266 0.16a2.92 2.92 0 0 1-1.145 0.382c-0.13 0.022-0.276 0.041-0.438 0.054a0.8 0.8 0 0 1-0.46-0.099 73.96 73.96 0 0 0-1.189-0.605 63.478 63.478 0 0 1-1.19-0.606c-0.069 0.486-0.131 0.964-0.188 1.434s-0.12 0.938-0.187 1.405a117.85 117.85 0 0 0-0.677 5.495l-0.271 2.679c-0.09 0.878-0.148 1.78-0.176 2.706a23.809 23.809 0 0 0-0.019 2.151c0.029 0.261 0.054 0.511 0.073 0.749s0.055 0.481 0.106 0.728l-0.001 0.029a0.781 0.781 0 0 1 0.223 0.033c0.808 0.127 1.624 0.295 2.449 0.503 0.824 0.207 1.633 0.498 2.428 0.874z m-8.644-1.868c0.042 0.012 0.09 0.02 0.144 0.025a0.9 0.9 0 0 1 0.143 0.025 0.615 0.615 0 0 1-0.021-0.21 9.286 9.286 0 0 1-0.266 0.16z" fill="" p-id="2458"></path><path d="M704.143 671.378a5 5 0 0 1-4.924-5.898c5.611-30.747 3.186-73.241-7.011-122.889-7.741-37.69-17.281-66.386-17.376-66.671a5 5 0 1 1 9.484-3.172c0.098 0.292 9.828 29.558 17.688 67.831 10.602 51.618 12.975 94.245 7.053 126.696a5.004 5.004 0 0 1-4.914 4.103zM152.467 670.891h90.417c1.935 0 1.935-3 0-3h-90.417c-1.935 0-1.935 3 0 3zM194.616 674.972a897.12 897.12 0 0 0 61.86 3.096c1.936 0.03 1.933-2.97 0-3a897.15 897.15 0 0 1-61.86-3.096c-1.929-0.163-1.913 2.838 0 3zM210.699 682.283c21.998 2.806 44.224 3.179 66.202 6.163 1.891 0.257 2.707-2.634 0.798-2.893-22.245-3.02-44.735-3.43-66.999-6.27-1.917-0.244-1.893 2.759-0.001 3zM241.776 692.996c15.498 0.737 30.984 1.804 46.506 1.851 1.935 0.006 1.934-2.994 0-3-15.522-0.047-31.008-1.114-46.506-1.851-1.935-0.092-1.926 2.908 0 3zM139.55 658.391h58.125c1.935 0 1.935-3 0-3H139.55c-1.935 0-1.935 3 0 3zM233.366 660.891h-80.22c-1.935 0-1.935 3 0 3h80.22c1.935 0 1.935-3 0-3zM119.155 646.891h75.461c1.935 0 1.935-3 0-3h-75.461c-1.935 0-1.935 3 0 3zM127.653 653.891h35.011c1.935 0 1.935-3 0-3h-35.011c-1.935 0-1.935 3 0 3zM109.977 629.891h85.658c1.935 0 1.935-3 0-3h-85.658c-1.934 0-1.934 3 0 3zM112.696 637.891h33.991c1.935 0 1.935-3 0-3h-33.991c-1.934 0-1.934 3 0 3zM165.043 638.891c1.935 0 1.935-3 0-3s-1.934 3 0 3zM100.12 617.391h67.983c1.935 0 1.935-3 0-3H100.12c-1.935 0-1.935 3 0 3zM105.222 622.228l36.029 1.575c1.935 0.085 1.927-2.916 0-3l-36.029-1.575c-1.935-0.085-1.927 2.916 0 3zM99.782 604.281l51.668 2.45c1.935 0.092 1.926-2.909 0-3l-51.668-2.45c-1.935-0.092-1.926 2.909 0 3zM100.11 611.227l14.958-1.964c1.89-0.248 1.914-3.251 0-3l-14.958 1.964c-1.89 0.248-1.914 3.251 0 3zM98.084 593.096a553.414 553.414 0 0 1 39.08 2.437c1.925 0.188 1.907-2.813 0-3a553.414 553.414 0 0 0-39.08-2.437c-1.936-0.052-1.931 2.948 0 3zM99.784 598.772l14.274 1.071c1.931 0.145 1.917-2.856 0-3l-14.274-1.071c-1.931-0.144-1.917 2.857 0 3zM94.343 582.727a556.701 556.701 0 0 1 48.939 3.771c1.918 0.233 1.895-2.77 0-3a556.73 556.73 0 0 0-48.939-3.771c-1.935-0.063-1.929 2.937 0 3zM98.034 571.202l21.066 4.101c1.89 0.368 2.695-2.523 0.798-2.893l-21.066-4.101c-1.891-0.367-2.696 2.524-0.798 2.893zM108.613 565.81a125.174 125.174 0 0 1 18.02-0.913c1.936 0.042 1.932-2.958 0-3-6.034-0.13-12.03 0.175-18.02 0.913-1.895 0.233-1.917 3.236 0 3zM108.618 553.391h11.557c1.935 0 1.935-3 0-3h-11.557c-1.935 0-1.935 3 0 3zM111.378 559.452l2.039-2.5c0.516-0.633 0.622-1.5 0-2.121-0.534-0.534-1.604-0.634-2.121 0l-2.039 2.5c-0.516 0.633-0.622 1.5 0 2.121 0.534 0.534 1.603 0.634 2.121 0zM112.696 536.891h19.375c1.935 0 1.935-3 0-3h-19.375c-1.934 0-1.934 3 0 3zM111.677 545.391h7.818c1.935 0 1.935-3 0-3h-7.818c-1.935 0-1.935 3 0 3z" fill="#280D0D" p-id="2459"></path><path d="M122.894 558.391c1.935 0 1.935-3 0-3s-1.935 3 0 3z" fill="#280D0D" p-id="2460"></path><path d="M103.179 577.391c1.935 0 1.935-3 0-3s-1.935 3 0 3z" fill="#280D0D" p-id="2461"></path><path d="M132.412 577.891c1.935 0 1.935-3 0-3s-1.935 3 0 3z" fill="#280D0D" p-id="2462"></path><path d="M124.594 611.391c1.935 0 1.935-3 0-3s-1.935 3 0 3z" fill="#280D0D" p-id="2463"></path><path d="M148.048 586.391h5.439c1.935 0 1.935-3 0-3h-5.439c-1.935 0-1.935 3 0 3zM139.55 596.391h7.818c1.935 0 1.935-3 0-3h-7.818c-1.935 0-1.935 3 0 3zM122.554 575.391h2.379c1.935 0 1.935-3 0-3h-2.379c-1.935 0-1.935 3 0 3zM122.214 546.891h3.399c1.935 0 1.935-3 0-3h-3.399c-1.934 0-1.934 3 0 3zM171.543 617.102c2.242-0.332 4.499-0.362 6.755-0.168 1.928 0.166 1.912-2.835 0-3-2.539-0.219-5.034-0.099-7.552 0.275-1.908 0.283-1.094 3.173 0.797 2.893z" fill="#280D0D" p-id="2464"></path><path d="M313.501021 536.155725a41.75 20.633 14.827 1 0 10.560025-39.891962 41.75 20.633 14.827 1 0-10.560025 39.891962Z" fill="#FFC866" p-id="2465"></path><path d="M364.117 281.514a7.476 7.476 0 0 1-5.372-2.266c-3.377-3.466-13.943-6.622-20.367-7.756a7.501 7.501 0 0 1 2.589-14.775c0.201 0.035 4.986 0.88 10.655 2.627 8.224 2.534 14.235 5.708 17.867 9.435a7.5 7.5 0 0 1-5.372 12.735zM405.652 217.331a7.491 7.491 0 0 1-6.123-3.16c-3.932-5.539-10.811-18.291-11.101-18.832a7.5 7.5 0 0 1 13.206-7.113c1.861 3.455 7.308 13.29 10.127 17.263a7.5 7.5 0 0 1-1.775 10.457 7.455 7.455 0 0 1-4.334 1.385zM478.304 231.37a7.502 7.502 0 0 1-2.824-14.451c4.24-1.721 10.403-7.729 13.292-11.112 2.689-3.147 7.421-3.525 10.571-0.84s3.532 7.412 0.85 10.564c-1.003 1.18-10.063 11.63-19.072 15.286a7.468 7.468 0 0 1-2.817 0.553z" fill="#FF76C4" p-id="2466"></path></svg>