<?xml version="1.0" standalone="no"?><!DOCTYPE svg PUBLIC "-//W3C//DTD SVG 1.1//EN" "http://www.w3.org/Graphics/SVG/1.1/DTD/svg11.dtd"><svg class="icon" width="16px" height="15.91px" viewBox="0 0 1030 1024" version="1.1" xmlns="http://www.w3.org/2000/svg"><path fill="#000000" d="M611.2 569.6h44.8v44.8h-44.8v-44.8z m-44.8 0h-44.8v44.8H480v-44.8h-44.8v44.8H480v44.8h44.8v-44.8h41.6v44.8H608v-44.8h-44.8v-44.8h3.2zM544 214.4c-38.4 0-70.4 28.8-73.6 64h150.4c-6.4-35.2-38.4-64-76.8-64z m483.2 467.2h-38.4v48h-134.4c-9.6 44.8-48 80-92.8 80-48 0-86.4-35.2-92.8-80h-291.2c-9.6 44.8-48 80-92.8 80-48 0-86.4-35.2-92.8-80H32v-48H3.2v-67.2H32V480h220.8l108.8-185.6h444.8l108.8 185.6H992v134.4h38.4v67.2h-3.2z m-684.8 32c0-35.2-28.8-60.8-60.8-60.8-35.2 0-60.8 28.8-60.8 60.8 0 35.2 28.8 60.8 60.8 60.8 32 0 60.8-25.6 60.8-60.8z m480 0c0-35.2-28.8-60.8-60.8-60.8-35.2 0-60.8 28.8-60.8 60.8 0 35.2 28.8 60.8 60.8 60.8 32 0 60.8-25.6 60.8-60.8z m131.2-198.4h-64l-108.8-185.6H377.6l-108.8 185.6H64v182.4h121.6c9.6-44.8 48-80 92.8-80 48 0 86.4 35.2 92.8 80h291.2c9.6-44.8 48-80 92.8-80 48 0 86.4 35.2 92.8 80h102.4v-182.4h3.2z m-390.4-147.2V512h281.6l-83.2-147.2h-198.4v3.2z m-35.2 0h-128L316.8 512h211.2v-144z"  /></svg>